<?xml version="1.0" encoding="UTF-8" standalone="no"?>
<!-- Created with Inkscape (http://www.inkscape.org/) -->

<svg
   width="256"
   height="256"
   viewBox="0 0 67.733331 67.733333"
   version="1.1"
   id="svg5"
   sodipodi:docname="icon.svg"
   inkscape:version="1.1 (c68e22c387, 2021-05-23)"
   inkscape:export-filename="D:\Projects\c#\ProjectRunner\ProjectRunner.Desktop\Resources\uninstall.png"
   inkscape:export-xdpi="96"
   inkscape:export-ydpi="96"
   xmlns:inkscape="http://www.inkscape.org/namespaces/inkscape"
   xmlns:sodipodi="http://sodipodi.sourceforge.net/DTD/sodipodi-0.dtd"
   xmlns="http://www.w3.org/2000/svg"
   xmlns:svg="http://www.w3.org/2000/svg">
  <sodipodi:namedview
     id="namedview7"
     pagecolor="#ffffff"
     bordercolor="#111111"
     borderopacity="1"
     inkscape:pageshadow="0"
     inkscape:pageopacity="0"
     inkscape:pagecheckerboard="1"
     inkscape:document-units="mm"
     showgrid="false"
     units="px"
     inkscape:snap-global="true"
     showguides="true"
     inkscape:guide-bbox="true"
     inkscape:zoom="4"
     inkscape:cx="201.25"
     inkscape:cy="161"
     inkscape:window-width="1920"
     inkscape:window-height="1010"
     inkscape:window-x="-7"
     inkscape:window-y="-7"
     inkscape:window-maximized="1"
     inkscape:current-layer="layer3">
    <sodipodi:guide
       position="0,67.733332"
       orientation="0,1"
       id="guide9"
       inkscape:label=""
       inkscape:locked="false"
       inkscape:color="rgb(0,0,255)" />
    <sodipodi:guide
       position="0,67.733332"
       orientation="-1,0"
       id="guide11"
       inkscape:label=""
       inkscape:locked="false"
       inkscape:color="rgb(0,0,255)" />
    <sodipodi:guide
       position="67.733332,0"
       orientation="-1,0"
       id="guide13"
       inkscape:label=""
       inkscape:locked="false"
       inkscape:color="rgb(0,0,255)" />
    <sodipodi:guide
       position="67.733332,0"
       orientation="0,1"
       id="guide15"
       inkscape:label=""
       inkscape:locked="false"
       inkscape:color="rgb(0,0,255)" />
    <sodipodi:guide
       position="133.35,48.554209"
       orientation="-1,0"
       id="guide9548"
       inkscape:label=""
       inkscape:locked="false"
       inkscape:color="rgb(0,0,255)" />
    <sodipodi:guide
       position="13.229166,62.970446"
       orientation="-1,0"
       id="guide9550"
       inkscape:label=""
       inkscape:locked="false"
       inkscape:color="rgb(0,0,255)" />
    <sodipodi:guide
       position="26.458333,30.691666"
       orientation="-1,0"
       id="guide10239"
       inkscape:label=""
       inkscape:locked="false"
       inkscape:color="rgb(0,0,255)" />
    <sodipodi:guide
       position="26.458333,30.691666"
       orientation="0,1"
       id="guide10333"
       inkscape:label=""
       inkscape:locked="false"
       inkscape:color="rgb(0,0,255)" />
    <sodipodi:guide
       position="26.458333,41.274999"
       orientation="0,1"
       id="guide10335"
       inkscape:label=""
       inkscape:locked="false"
       inkscape:color="rgb(0,0,255)" />
    <sodipodi:guide
       position="26.458333,20.108333"
       orientation="0,1"
       id="guide10337"
       inkscape:label=""
       inkscape:locked="false"
       inkscape:color="rgb(0,0,255)" />
    <sodipodi:guide
       position="47.624999,30.691666"
       orientation="-1,0"
       id="guide10339"
       inkscape:label=""
       inkscape:locked="false"
       inkscape:color="rgb(0,0,255)" />
    <sodipodi:guide
       position="26.458333,39.952083"
       orientation="0.70710678,-0.70710678"
       id="guide13760"
       inkscape:label=""
       inkscape:locked="false"
       inkscape:color="rgb(0,0,255)" />
    <sodipodi:guide
       position="26.458333,21.431253"
       orientation="0.70710678,0.70710678"
       id="guide14313"
       inkscape:label=""
       inkscape:locked="false"
       inkscape:color="rgb(0,0,255)" />
    <sodipodi:guide
       position="46.302082,30.479302"
       orientation="-1,0"
       id="guide15136"
       inkscape:label=""
       inkscape:locked="false"
       inkscape:color="rgb(0,0,255)" />
    <sodipodi:guide
       position="47.624999,14.787239"
       orientation="0,-1"
       id="guide2060" />
  </sodipodi:namedview>
  <defs
     id="defs2" />
  <g
     inkscape:label="Base"
     inkscape:groupmode="layer"
     id="layer1"
     sodipodi:insensitive="true">
    <g
       aria-label="P"
       transform="matrix(0.98323022,0,0,1.0170558,7.4083333,0)"
       id="text5046"
       style="font-size:91.5995px;line-height:1.25;fill:#241f1c;stroke-width:2.28999">
      <path
         id="path8260"
         style="display:inline;fill:#483737;stroke-width:8.65508"
         d="m 0,0 v 256 c 0,0 21.940328,0 32.910156,0 C 38.606988,256 50,256 50,256 v -95.41992 h 15.818359 c 17.729018,0 32.41221,-2.17771 44.046871,-6.5332 11.63467,-4.47012 21.71792,-11.11775 30.25,-19.94336 6.87,-7.10634 12.18767,-15.47363 15.95508,-25.10157 3.87822,-9.74256 5.81836,-20.287545 5.81836,-31.634762 0,-14.900388 -2.6046,-27.222285 -7.8125,-36.964844 C 148.97908,30.659783 141.72127,22.521528 132.30273,15.988281 124.32468,10.4866 115.18389,6.4766824 104.87891,3.9550781 94.573915,1.3188559 81.996487,0 67.148438,0 Z m 50,39.115234 h 23.900391 c 7.641513,0 13.941538,0.590328 18.90039,1.767578 5.040147,1.093162 9.512019,2.942057 13.414059,5.548829 4.4711,3.027214 7.80315,6.937374 9.99805,11.730468 2.1949,4.793093 3.29297,10.427465 3.29297,16.902344 0,5.549897 -0.8136,10.553033 -2.43945,15.009766 -1.54457,4.456735 -4.22808,8.703944 -8.04883,12.740231 -3.82076,3.9522 -8.77805,6.85316 -14.875002,8.70313 -6.096949,1.76587 -14.024176,2.64844 -23.779297,2.64844 H 50 Z"
         transform="scale(0.26909601,0.26014633)" />
    </g>
  </g>
  <g
     inkscape:groupmode="layer"
     id="layer2"
     inkscape:label="Run"
     sodipodi:insensitive="true">
    <path
       style="opacity:1;fill:#00aa00;fill-opacity:1;stroke:#008000;stroke-width:0.337786;stroke-linecap:round;stroke-linejoin:round;stroke-miterlimit:4;stroke-dasharray:none;stroke-opacity:1"
       d="M 37.708394,55.308853 59.623042,41.990345 c 0.790997,-0.520504 0.625585,-1.497948 0.0016,-1.85969 L 37.704164,26.808587 c -1.022455,-0.621395 -1.022455,0.497523 -1.022456,1.23028 v 26.029035 c 10e-7,0.688538 0.150952,1.611426 1.026683,1.240951 z"
       id="path10374"
       sodipodi:nodetypes="ccccccc" />
  </g>
  <g
     inkscape:groupmode="layer"
     id="layer3"
     inkscape:label="Remove">
    <circle
       id="path873"
       style="fill:#00aa00;stroke:#008000;stroke-width:0.264583"
       cx="38.072544"
       cy="36.950012"
       r="0.012479635" />
    <circle
       id="path875"
       style="fill:#00aa00;stroke:#008000;stroke-width:0.264583"
       cx="38.072544"
       cy="36.950012"
       r="0.012479635" />
    <circle
       id="path877"
       style="fill:#00aa00;stroke:#008000;stroke-width:0.264583"
       cx="46.304443"
       cy="67.913185"
       r="0.012479635" />
    <circle
       id="path879"
       style="fill:#00aa00;stroke:#008000;stroke-width:0.264583"
       cx="46.304443"
       cy="67.913185"
       r="0.012479635" />
    <path
       fill-rule="evenodd"
       d="m 67.733333,52.946094 -2.322736,-0.0011 v 12.104099 c 10e-7,1.485535 -1.386563,2.689801 -3.096979,2.689802 h -9.290944 c -1.710418,10e-7 -3.096986,-1.204265 -3.096985,-2.689802 V 52.944964 l -2.300689,0.0011 c 0,0 -0.04478,-3.135146 0.07123,-3.969685 l 6.874928,-0.06615 c 0,0 0.693283,-1.344898 1.54849,-1.344898 h 2.828043 c 0.855206,0 1.548488,0.707369 1.817429,1.344898 h 6.941075 c 0.06798,1.518687 0.02713,4.035831 0.02713,4.035831 z m -16.076432,-0.0011 -0.182716,0.07935 v 12.024748 c -2e-6,0.74277 0.693283,1.344904 1.548494,1.344903 h 9.290947 c 0.855208,-10e-7 1.54849,-0.602135 1.548488,-1.344903 v -12.02475 l -0.182717,-0.07935 z m -2.505459,-1.344898 v -1.344899 h 17.033403 v 1.344899 z"
       id="path4"
       style="stroke-width:1.4431"
       sodipodi:nodetypes="ccssssccccssccccccsscccccccccc" />
    <path
       d="m 54.382896,55.496354 a 0.67248261,0.67090752 0 0 1 0.672485,0.670909 v 8.050891 a 0.67248261,0.67090752 0 0 1 -1.344964,0 v -8.050891 a 0.67248261,0.67090752 0 0 1 0.672479,-0.670909 z m 3.362417,0 a 0.67248261,0.67090752 0 0 1 0.672479,0.670909 v 8.050891 a 0.67248261,0.67090752 0 0 1 -1.344963,0 v -8.050891 a 0.67248261,0.67090752 0 0 1 0.672484,-0.670909 z m 4.034896,0.670909 a 0.6724845,0.6709094 0 0 0 -1.344969,0 v 8.050891 a 0.6724845,0.6709094 0 0 0 1.344969,0 z"
       id="path2"
       style="stroke-width:1.34339" />
    <path
       style="fill:#666666;stroke:#008000;stroke-width:0.177055;stroke-linecap:round;stroke-linejoin:round"
       d="m 185.8807,192.50982 v -2.47487 h 32.08497 32.08497 v 2.47487 2.47488 H 217.96567 185.8807 Z"
       id="path2858"
       transform="scale(0.26458333)" />
    <path
       style="fill:#666666;stroke:#008000;stroke-width:0.177055;stroke-linecap:round;stroke-linejoin:round"
       d="m 198.65918,250.59129 c -1.69958,-0.53485 -2.95794,-1.58612 -3.60955,-3.01553 -0.30663,-0.67266 -0.32252,-1.83693 -0.32622,-23.90283 -0.004,-22.75407 0.003,-23.1992 0.33805,-23.37871 0.47627,-0.25489 45.33215,-0.25489 45.80841,0 0.33539,0.17949 0.34193,0.62682 0.34193,23.3882 v 23.20521 l -0.45383,0.91072 c -0.54571,1.0951 -1.4006,1.88069 -2.72008,2.49958 l -0.98034,0.45981 -18.82672,0.034 c -15.21894,0.0275 -18.96947,-0.011 -19.57165,-0.20044 z m 8.46977,-5.78053 c 1.06466,-0.7581 1.02564,-0.0982 1.02534,-17.33767 -2.5e-4,-14.67679 -0.0219,-15.82548 -0.30936,-16.38915 -0.41904,-0.82177 -1.08366,-1.27115 -2.03935,-1.37887 -0.97508,-0.1099 -2.01684,0.40531 -2.5283,1.25039 -0.32434,0.5359 -0.33971,1.16311 -0.39041,15.93743 -0.029,8.45877 -0.004,15.71728 0.0549,16.13003 0.1236,0.86141 0.7867,1.74438 1.5801,2.10404 0.70611,0.32009 1.92032,0.17282 2.60708,-0.3162 z m 12.33298,0.15755 c 1.52247,-0.78069 1.42059,0.4713 1.42028,-17.45394 -1.8e-4,-14.71609 -0.0219,-15.86672 -0.30936,-16.43043 -0.96336,-1.88926 -3.78429,-1.86378 -4.64952,0.042 -0.32244,0.71022 -0.33654,1.38889 -0.34027,16.37405 -0.004,15.4049 0.001,15.64405 0.35865,16.38201 0.25887,0.53475 0.57479,0.85395 1.10486,1.11633 0.94838,0.46945 1.45355,0.46317 2.41536,-0.03 z m 12.6985,0.0187 c 0.58245,-0.28197 0.86738,-0.56491 1.11259,-1.10486 0.31363,-0.6906 0.32981,-1.48793 0.3335,-16.43223 0.004,-17.37148 0.0631,-16.46421 -1.12276,-17.31012 -0.77142,-0.55026 -2.27859,-0.55026 -3.05001,0 -1.1859,0.84591 -1.12706,-0.0614 -1.12276,17.31012 0.004,14.91556 0.0204,15.74276 0.33182,16.42848 0.24025,0.52899 0.53466,0.8244 1.10098,1.10472 0.96978,0.48003 1.43153,0.48077 2.41664,0.004 z"
       id="path2897"
       transform="scale(0.26458333)" />
  </g>
</svg>
